HIERARCHY
ROOT Hips
{
     OFFSET 1.88212 96.90440 -13.34250
     CHANNELS 6 Xposition Yposition Zposition Zrotation Xrotation Yrotation
     JOINT Spine
     {
          OFFSET 0.00000 11.89050 0.00000
          CHANNELS 3 Zrotation Xrotation Yrotation
          JOINT Spine1
          {
               OFFSET -0.00000 25.65740 0.12766
               CHANNELS 3 Zrotation Xrotation Yrotation
               JOINT HEad
               {
                    OFFSET 0.00000 8.73416 0.01134
                    CHANNELS 3 Zrotation Xrotation Yrotation
                    End Site
                    {
                         OFFSET -0.29000 12.77420 2.51395
                    }
               }
               JOINT LeftShoulder1
               {
                    OFFSET 8.99000 -0.36225 -0.22000
                    CHANNELS 3 Zrotation Xrotation Yrotation
                    JOINT LeftArm
                    {
                         OFFSET 10.28270 -0.00338 0.32212
                         CHANNELS 3 Zrotation Xrotation Yrotation
                         JOINT LeftForeArm
                         {
                              OFFSET 32.76690 0.09914 -1.42434
                              CHANNELS 3 Zrotation Xrotation Yrotation
                              JOINT LeftHand
                              {
                                   OFFSET 27.56430 0.08536 1.02216
                                   CHANNELS 3 Zrotation Xrotation Yrotation
                                   End Site
                                   {
                                        OFFSET 16.74430 -0.60000 1.50291
                                   }
                              }
                         }
                    }
               }
               JOINT RightShoulder
               {
                    OFFSET -8.99000 -0.36225 -0.22000
                    CHANNELS 3 Zrotation Xrotation Yrotation
                    JOINT RightArm
                    {
                         OFFSET -10.28270 -0.00338 0.32212
                         CHANNELS 3 Zrotation Xrotation Yrotation
                         JOINT RightForeArm
                         {
                              OFFSET -32.89710 0.09914 -1.42434
                              CHANNELS 3 Zrotation Xrotation Yrotation
                              JOINT RightHand
                              {
                                   OFFSET -27.49210 0.08536 1.02216
                                   CHANNELS 3 Zrotation Xrotation Yrotation
                                   End Site
                                   {
                                        OFFSET -16.63120 -0.60000 1.50291
                                   }
                              }
                         }
                    }
               }
          }
     }
     JOINT LeftUpLeg
     {
          OFFSET 8.94580 -8.66707 0.10165
          CHANNELS 3 Zrotation Xrotation Yrotation
          JOINT LeftLeg
          {
               OFFSET 0.00000 -44.42270 1.37270
               CHANNELS 3 Zrotation Xrotation Yrotation
               JOINT LeftFoot
               {
                    OFFSET -0.25355 -42.09240 -1.46059
                    CHANNELS 3 Zrotation Xrotation Yrotation
                    JOINT LeftToes
                    {
                         OFFSET -0.04000 -4.41509 8.49910
                         CHANNELS 3 Zrotation Xrotation Yrotation
                         End Site
                         {
                              OFFSET 0.08000 -0.04745 9.77979
                         }
                    }
               }
          }
     }
     JOINT RightUpLeg
     {
          OFFSET -8.94580 -8.66707 0.10165
          CHANNELS 3 Zrotation Xrotation Yrotation
          JOINT RightLeg
          {
               OFFSET 0.00000 -44.42270 1.37270
               CHANNELS 3 Zrotation Xrotation Yrotation
               JOINT RightFoot
               {
                    OFFSET 0.25355 -42.09240 -1.46059
                    CHANNELS 3 Zrotation Xrotation Yrotation
                    JOINT RightToes
                    {
                         OFFSET 0.04000 -4.41509 8.49910
                         CHANNELS 3 Zrotation Xrotation Yrotation
                         End Site
                         {
                              OFFSET -0.08000 -0.13745 9.77979
                         }
                    }
               }
          }
     }
}
MOTION
Frames: 13
Frame Time: 0.01667
-823.41571 97.08715 -299.57086 -52.25156 -35.53063 3.26425 6.40519 27.79841 -8.42272 0.00721 0.00109 -0.00132 17.34542 10.68448 -32.53350 8.06500 8.98391 0.14653 -43.91991 26.23317 -78.05524 -0.82677 10.12524 -90.67529 21.29651 9.48906 0.92731 45.47663 6.20326 -8.50475 43.27910 -17.91020 10.62612 -27.16025 5.20061 34.27406 25.53490 10.70639 -15.34864 60.08644 -1.95859 -23.22488 -22.38383 15.96924 71.96346 37.59251 -0.00834 -0.00570 -40.46182 -22.61700 -84.20365 -52.94128 2.80831 -6.37342 114.11486 18.00903 -82.50603 -30.71798 0.13687 -0.15495 240.97473 -4.35616 -89.03752 
-823.06427 96.98923 -299.37805 -49.56094 -35.13442 2.72172 5.74524 27.98472 -8.87283 0.08031 0.07357 -0.03464 16.15797 10.62045 -32.20724 6.08485 8.70509 1.41740 -44.43733 26.82261 -78.16367 -0.25480 9.65713 -90.47709 20.71405 9.39792 0.71469 43.35848 6.88709 -7.75013 42.77356 -18.52871 11.31377 -27.37776 4.28254 39.65237 5.32904 6.97808 7.85304 57.57995 -0.20865 -24.01928 -23.25939 15.76796 73.97780 36.20810 -0.00859 -0.00654 -39.36366 -23.86829 -83.66595 -48.48184 4.94343 -7.61847 113.13833 20.47749 -82.36272 -30.06372 0.06734 0.03902 247.76736 -6.98607 -84.64650 
-822.59277 96.90672 -299.20605 -47.15362 -34.84890 2.19163 6.69746 28.37298 -10.47382 0.07366 0.07352 -0.03291 15.33696 10.33699 -32.46117 3.27112 8.22961 2.80940 -45.00106 27.17513 -78.20236 0.26422 9.24412 -90.37823 20.66288 9.60368 1.09981 40.94652 7.39762 -7.34902 43.02923 -22.29733 14.77285 -26.30508 7.05204 46.49024 21.97042 5.84347 -13.76299 55.18929 1.46725 -24.84654 -24.19446 15.38480 75.98380 34.93495 -0.00871 -0.00775 -38.23649 -25.24643 -83.21985 -43.72709 6.41767 -9.83409 111.70104 24.28285 -83.34590 -30.02559 0.07235 0.02302 256.52982 -10.01935 -80.07199 
-821.96558 96.88470 -299.03049 -45.12624 -34.69945 1.64480 8.84992 29.33228 -12.90854 0.07045 0.06805 -0.03250 15.17736 9.47926 -33.12426 0.18226 7.13566 4.24293 -45.63601 27.26694 -78.21976 0.66591 8.85892 -90.38267 20.29972 9.57091 1.06139 39.32347 7.30156 -7.03149 42.93400 -24.34850 15.71902 -23.91267 8.60880 53.40988 7.62379 12.85984 0.92129 52.99336 3.10596 -25.74203 -25.15354 14.80289 77.96085 33.75927 -0.00842 -0.00907 -37.07153 -26.75231 -82.85745 -39.19701 6.59321 -12.54737 110.63666 28.90102 -86.19082 -30.01735 0.07857 0.01725 266.77679 -13.38802 -74.94279 
-821.19702 96.87440 -298.85260 -41.86243 -33.77362 0.60856 8.59933 29.38984 -13.38460 -0.00737 -0.01104 0.00081 16.77187 9.06647 -34.76642 -2.15868 6.53953 5.27582 -46.18182 27.11737 -78.16423 0.97811 8.49420 -90.54642 20.25852 9.70449 1.34359 38.13090 7.31444 -6.77996 42.70784 -25.88635 15.36415 -21.95821 8.18011 61.78206 22.82302 11.89014 -22.55163 49.48415 5.23949 -25.13038 -26.07447 14.03194 79.88898 32.65396 -0.00799 -0.01034 -35.87150 -28.33154 -82.56200 -35.91058 4.48041 -15.00107 109.72186 34.06468 -90.47958 -30.01001 0.08319 0.01328 278.25641 -17.07299 -69.05261 
-820.34766 96.74754 -298.71948 -39.17639 -33.05313 -0.43950 8.42773 29.36129 -13.77623 -0.01600 -0.00881 0.00292 18.33785 8.71021 -36.24297 -3.98622 6.22978 5.99128 -46.64307 26.75937 -78.00980 1.24263 8.17686 -90.86859 20.05852 9.65900 1.34537 36.33546 7.48442 -6.40415 44.42877 -30.04635 19.14768 -20.47918 10.39815 70.07322 4.99473 13.26832 1.62516 46.28373 7.13603 -24.65247 -26.94804 13.11033 81.74532 31.59861 -0.00745 -0.01116 -34.65660 -29.86379 -82.30589 -31.87379 2.58688 -17.52638 108.50195 39.28194 -95.32255 -30.00029 0.08358 0.00904 290.42517 -20.94617 -62.21972 
-819.47424 96.44643 -298.65994 -36.91743 -32.41681 -1.49690 8.24633 29.24235 -14.00411 -0.01527 -0.00095 0.00426 19.90763 8.43135 -37.62112 3.19563 11.24281 -1.29974 -55.91689 18.69421 -77.09848 1.87250 8.06101 -91.64076 20.17260 9.70313 1.52393 34.57354 7.71927 -5.97775 45.93705 -32.91521 22.15131 -19.02205 10.68782 79.45036 18.29618 8.75036 -17.09299 43.34635 8.74952 -24.19623 -27.78155 12.08834 83.50453 30.59039 -0.00694 -0.01103 -33.45984 -31.20755 -82.05447 -27.25748 1.21892 -19.77705 104.32263 44.50376 -97.29197 -28.25792 -0.01227 0.03960 302.34033 -23.46750 -52.26752 
-818.60706 95.98260 -298.67841 -34.46672 -31.44191 -2.80976 7.80919 29.00723 -13.89080 0.01056 0.02835 -0.00816 21.27703 7.88508 -38.72350 7.52199 13.77195 -5.92507 -61.62458 13.66598 -76.92143 2.61383 8.00940 -92.92257 20.31325 9.73692 1.69941 32.77207 7.73510 -5.34571 47.62806 -35.39067 25.31952 -17.30629 11.48003 87.39329 22.90669 5.40041 -23.29134 40.11798 10.06804 -23.12073 -28.56700 11.00296 85.20930 29.64688 -0.00624 -0.00966 -32.26434 -32.40728 -81.79160 -22.92372 -0.44989 -21.44371 99.20084 49.62600 -98.05616 -26.65413 0.00417 0.03337 315.00348 -24.05560 -41.17066 
-817.73920 95.40051 -298.74329 -31.84017 -30.07207 -4.39446 7.17123 28.61892 -13.46884 0.00912 0.03165 -0.00787 22.49908 7.10396 -39.53857 9.68209 14.81441 -8.43132 -65.15900 10.61249 -76.78870 3.24153 7.94528 -94.34623 20.39234 9.74763 1.85962 30.88898 7.54606 -4.41187 49.67733 -37.51418 28.75465 -15.64278 12.77334 94.03600 23.82068 4.72267 -23.10987 36.64170 10.93629 -21.40658 -29.32473 9.87318 86.85461 28.78132 -0.00598 -0.00797 -31.11401 -33.39385 -81.50715 -18.79585 -2.23367 -22.41001 92.59985 54.53858 -97.00725 -25.02548 0.00860 0.02597 327.71057 -22.14866 -29.74429 
-816.85046 94.76341 -298.80914 -29.08611 -28.27845 -6.27586 6.41560 28.03382 -12.78341 0.00717 0.03049 -0.00878 23.55054 6.10864 -40.00801 10.26066 14.86008 -9.35430 -67.27786 8.79355 -76.59066 3.68744 7.85872 -95.66501 20.37294 9.72309 1.98649 28.98143 7.14419 -3.24279 52.05634 -39.20774 32.49118 -14.19699 14.45954 99.55473 23.01267 5.59533 -19.34943 32.99917 11.25377 -19.08474 -30.06665 8.71764 88.42965 27.97926 -0.00602 -0.00659 -30.03966 -34.17870 -81.21381 -14.84076 -4.00263 -22.61502 83.89761 59.01044 -93.48905 -23.29594 0.01257 0.01972 339.62857 -17.54818 -19.10378 
-816.01031 94.58279 -298.87115 -25.84156 -26.25261 -8.17943 5.47422 27.42535 -11.91799 0.00692 0.03249 0.00393 24.24358 4.94070 -39.71352 9.76844 14.43991 -9.02013 -69.00071 6.21726 -76.15546 3.62755 7.94222 -96.25574 20.22058 14.75215 2.93425 28.53818 9.56222 -3.71309 57.45333 -40.13468 41.97987 -12.64921 16.78275 104.44317 22.58238 3.62118 -14.95592 28.98750 11.03830 -16.42371 -30.48006 7.73616 89.17879 26.98784 -0.00715 0.00083 -28.43922 -33.79503 -85.45514 -11.15966 -5.52239 -22.01875 69.86195 62.33479 -83.80055 -24.52409 -0.03391 0.01297 350.14310 -18.31405 -11.32385 
-815.20593 94.39069 -298.90149 -22.19605 -24.02621 -10.16265 4.22679 26.76943 -10.83398 0.00635 0.03097 0.00290 24.71981 3.71932 -38.66377 8.50497 13.64832 -7.71315 -70.47790 2.85577 -75.39996 3.09332 8.31087 -96.27702 19.64541 21.72345 4.31928 27.36538 11.05497 -3.62861 63.58751 -39.01260 50.94602 -10.99476 19.65159 108.56558 21.72714 0.43850 -10.65717 24.69367 10.24532 -13.50815 -30.64241 6.93714 89.18986 25.77386 -0.01435 0.00543 -26.17330 -33.59139 -86.94968 -7.78942 -6.73318 -20.66628 51.11866 63.23998 -68.66906 -26.78970 -0.03547 0.04333 359.32892 -22.24464 -5.06746 
-814.41748 94.28824 -298.90057 -18.20055 -21.61994 -12.26493 2.69393 26.02538 -9.57752 0.00469 0.02921 0.00040 24.97679 2.51224 -36.90889 6.66256 12.47866 -5.73628 -71.82050 -1.27155 -74.31506 2.18013 9.08482 -95.82287 18.09196 29.13069 5.92916 25.66438 11.68578 -3.16205 69.40205 -35.93557 58.62306 -9.21737 22.93393 111.77825 20.29108 -2.92542 -6.58978 20.16714 8.81209 -10.43568 -30.58728 6.31662 88.54716 24.32002 -0.02452 0.01011 -23.27213 -33.41838 -86.36145 -4.84814 -7.63459 -18.63306 31.77891 60.77132 -52.34134 -27.49094 -0.02839 0.02272 365.74899 -27.71399 0.52993 
